<?xml version="1.0" standalone="no"?>
<!DOCTYPE svg PUBLIC "-//W3C//DTD SVG 20010904//EN"
 "http://www.w3.org/TR/2001/REC-SVG-20010904/DTD/svg10.dtd">
<svg version="1.0" xmlns="http://www.w3.org/2000/svg"
 width="500.000000pt" height="500.000000pt" viewBox="0 0 500.000000 500.000000"
 preserveAspectRatio="xMidYMid meet">
<metadata>
Created by potrace 1.14, written by Peter Selinger 2001-2017
</metadata>
<g transform="translate(0.000000,500.000000) scale(0.100000,-0.100000)"
fill="#000000" stroke="none">
<path d="M0 3750 l0 -1250 620 0 c341 0 620 3 621 8 0 4 1 566 2 1250 l2 1242
-622 0 -623 0 0 -1250z m843 8 c-1 -464 -2 -846 -2 -850 -1 -5 -100 -8 -221
-8 l-220 0 0 850 0 850 223 0 222 0 -2 -842z"/>
<path d="M1625 3753 l0 -1248 931 -3 931 -2 -44 142 c-131 428 -194 640 -191
643 3 3 428 8 488 6 13 -1 15 -50 15 -393 l0 -393 188 -3 187 -2 0 1250 0
1250 -188 0 -187 0 0 -661 c0 -363 -3 -662 -6 -664 -5 -3 -578 -9 -605 -6 -13
1 -23 24 -59 146 -31 104 -69 230 -90 295 -12 39 -52 169 -233 763 l-39 128
-28 -93 c-16 -51 -39 -127 -51 -168 -12 -41 -43 -142 -69 -225 -25 -82 -48
-159 -51 -170 -2 -11 -8 -31 -13 -45 -6 -14 -33 -101 -61 -195 -28 -93 -62
-204 -75 -245 -12 -41 -37 -120 -53 -175 -17 -55 -67 -219 -112 -365 -44 -146
-94 -308 -109 -360 -16 -52 -45 -144 -64 -205 l-35 -110 -1 1178 -1 1177 -188
0 -187 0 0 -1247z m1150 -293 c15 -47 28 -92 30 -100 2 -8 4 -16 5 -17 2 -2 3
-6 4 -10 2 -5 9 -28 16 -53 7 -25 14 -48 16 -52 1 -5 3 -10 4 -13 1 -3 3 -8 4
-12 1 -5 10 -35 21 -68 10 -33 19 -62 20 -65 1 -3 5 -18 9 -35 4 -16 12 -41
18 -55 6 -14 12 -37 15 -52 l4 -28 -220 0 c-172 0 -219 3 -216 13 2 6 43 140
90 297 47 157 89 292 92 300 3 8 7 20 9 27 1 6 8 29 15 50 l13 38 12 -40 c7
-22 24 -78 39 -125z"/>
<path d="M1245 1143 l0 -1138 1878 -3 1877 -2 0 570 0 570 -432 0 -433 0 -2
193 c-1 105 -2 356 -3 557 l-2 365 -177 -1 c-216 -2 -213 -2 -207 -13 3 -5 7
-248 8 -540 2 -292 7 -531 11 -531 5 0 5 -5 1 -12 -10 -16 -11 -138 -2 -138 4
0 3 -12 -2 -26 -7 -18 -7 -23 2 -18 7 5 8 3 3 -6 -11 -17 -12 -69 -3 -98 5
-15 4 -21 -2 -17 -7 4 -7 -2 0 -19 6 -16 6 -27 0 -31 -7 -4 -6 -13 0 -26 7
-12 7 -19 1 -19 -7 0 -7 -8 -1 -24 5 -13 6 -27 3 -30 -4 -3 -5 -34 -4 -69 5
-152 6 -230 1 -238 -3 -4 -32 33 -64 84 -52 84 -467 735 -588 922 -86 135
-182 285 -198 311 -12 19 -221 346 -280 438 -8 13 -28 45 -45 72 l-30 49 -5
-955 -5 -955 -455 1 c-250 1 -458 2 -462 3 -5 1 -8 431 -8 956 l0 955 -188 0
-187 0 0 -1137z m1752 -308 c5 -5 17 -27 28 -47 11 -21 23 -38 27 -38 5 0 8
-4 8 -10 0 -9 39 -72 60 -97 5 -7 10 -15 10 -19 0 -4 11 -22 25 -40 14 -18 25
-37 25 -43 0 -6 5 -11 10 -11 6 0 10 -6 10 -14 0 -8 4 -16 8 -18 5 -1 23 -28
40 -59 l32 -56 -163 1 -162 1 -2 255 -2 255 19 -25 c11 -14 23 -29 27 -35z
m1603 -267 l0 -173 -202 2 c-112 1 -206 2 -210 2 -5 1 -8 78 -8 171 l0 170
210 0 210 0 0 -172z"/>
</g>
</svg>
